<?xml version="1.0" encoding="utf-8"?>
<!-- Generator: Adobe Illustrator 17.0.0, SVG Export Plug-In . SVG Version: 6.00 Build 0)  -->
<!DOCTYPE svg PUBLIC "-//W3C//DTD SVG 1.1//EN" "http://www.w3.org/Graphics/SVG/1.1/DTD/svg11.dtd">
<svg version="1.1" id="Layer_1" xmlns="http://www.w3.org/2000/svg" xmlns:xlink="http://www.w3.org/1999/xlink" x="0px" y="0px"
	 width="363.113px" height="82.875px" viewBox="0 0 363.113 82.875" enable-background="new 0 0 363.113 82.875"
	 xml:space="preserve">
<path fill="#FFFFFF" d="M363.113,70.875c0,6.627-5.373,12-12,12H12c-6.627,0-12-5.373-12-12V12C0,5.373,5.373,0,12,0h339.113
	c6.627,0,12,5.373,12,12V70.875z"/>
<g>
	<path fill="#00703C" d="M148.428,36.252c-0.877-1.291-1.373-2.867-1.373-4.556v-0.071c0-4.273,3.133-7.764,7.65-7.764h0.073
		c4.517,0,7.649,3.49,7.649,7.764v0.071c0,1.349-0.268,2.594-0.762,3.669l-1.541-1.357l-3.467,3.961
		c3.027,0.504,6.161,0.893,9.383,1.158l-0.005-0.004c1.458-2.112,2.257-4.588,2.257-7.248v-0.072c0-7.25-5.647-13.115-13.515-13.115
		s-13.588,5.938-13.588,13.188v0.073c0,0.75,0.064,1.485,0.181,2.2C143.622,34.928,145.979,35.631,148.428,36.252z"/>
	<path fill="#00703C" d="M187.513,39.096c1.758-0.143,3.497-0.32,5.219-0.528c0.513-1.44,0.783-3.124,0.783-5.053v-14.39h-5.61
		v14.607c0,2.803-0.998,4.659-2.749,5.536C185.938,39.217,186.725,39.16,187.513,39.096z"/>
	<path fill="#00703C" d="M203.062,36.909V19.125h-5.61v18.789C199.352,37.616,201.222,37.28,203.062,36.909z"/>
	<path fill="#00703C" d="M213.005,34.473v-6.059l3.735,4.904c1.803-0.592,3.561-1.221,5.27-1.883l-9.369-12.311h-5.173v16.812
		C209.352,35.487,211.198,34.998,213.005,34.473z"/>
	<path fill="#00703C" d="M180.226,39.498c-2.106-0.766-3.323-2.77-3.323-5.947V19.125h-5.609v14.572
		c0,2.269,0.385,4.198,1.108,5.791C174.967,39.568,177.578,39.573,180.226,39.498z"/>
	<path fill="#00703C" d="M207.468,38.464v6.161h5.537V37.48C211.185,37.833,209.338,38.161,207.468,38.464z"/>
	<path fill="#00703C" d="M197.452,39.812v4.813h5.61v-5.502C201.213,39.377,199.342,39.607,197.452,39.812z"/>
	<path fill="#00703C" d="M191.594,40.355c-6.292,0.49-12.445,0.668-18.393,0.561c1.863,2.729,5.016,4.109,9.129,4.109
		c4.383,0,7.734-1.554,9.581-4.695C191.805,40.339,191.699,40.348,191.594,40.355z"/>
	<path fill="#00703C" d="M153.621,39.456c-0.044-0.007-0.089-0.012-0.133-0.019c-3.863-0.526-7.574-1.186-11.107-1.965
		c2.053,4.484,6.6,7.59,12.324,7.59c2.842,0,5.463-0.842,7.612-2.225l4.024,3.599l3.592-4.068l-1.947-1.622
		C163.015,40.513,158.211,40.077,153.621,39.456z"/>
	<path fill="#00703C" d="M224.59,34.826l-0.001-0.001c-1.843,0.492-3.722,0.958-5.636,1.398l6.401,8.401h4.773V33.238
		C228.321,33.793,226.475,34.322,224.59,34.826L224.59,34.826z"/>
	<path fill="#00703C" d="M224.59,19.125v11.271c1.915-0.805,3.763-1.653,5.537-2.541v-8.729L224.59,19.125L224.59,19.125z"/>
	<path fill="#00703C" d="M60.444,26.841c1.968-0.12,3.919-0.214,5.854-0.283c1.336-1.646,3.291-2.696,5.491-2.696
		c2.951,0,4.7,0.946,6.667,2.586l3.533-4.262c-2.659-2.26-5.428-3.498-10.018-3.498c-5.85,0-10.504,3.408-12.42,8.21
		C59.85,26.878,60.146,26.859,60.444,26.841z"/>
	<path fill="#00703C" d="M92.497,27.197c1.33-2.017,3.562-3.336,6.309-3.336c3.454,0,6.14,2.131,7.213,5.087
		c2.168,0.378,4.263,0.794,6.276,1.246c-0.768-6.489-6.14-11.507-13.417-11.507c-5.898,0-10.587,3.336-12.567,8.06
		C88.411,26.866,90.475,27.017,92.497,27.197z"/>
	<path fill="#00703C" d="M48.264,27.912v-8.787h-5.609v9.508C44.496,28.371,46.367,28.131,48.264,27.912z"/>
	<path fill="#00703C" d="M132.484,34.826l-0.002-0.002l0,0l-11.947-15.699h-5.172v11.803c1.932,0.49,3.78,1.018,5.537,1.578v-4.092
		l12.349,16.211h4.772v-8.199c-1.908-0.496-3.756-1.031-5.537-1.602L132.484,34.826L132.484,34.826z"/>
	<path fill="#00703C" d="M115.363,44.625h5.537v-7.494c-1.757-0.854-3.604-1.656-5.537-2.405V44.625z"/>
	<path fill="#00703C" d="M132.484,19.125v11.27c1.747,0.894,3.597,1.73,5.537,2.507V19.125H132.484z"/>
	<path fill="#00703C" d="M106.527,31.846c0,0.01,0.001,0.02,0.001,0.029v0.073c0,4.371-3.134,7.941-7.65,7.941
		c-4.517,0-7.723-3.644-7.723-8.015v-0.072c0-1.017,0.172-1.989,0.489-2.885c-1.922-0.25-3.878-0.458-5.865-0.625
		c-0.318,1.141-0.489,2.342-0.489,3.582v0.073c0,7.249,5.646,13.114,13.516,13.114c7.232,0,12.646-5.018,13.474-11.459
		C110.428,32.971,108.51,32.383,106.527,31.846z"/>
	<path fill="#00703C" d="M71.827,34.789h5.646v3.643c-1.42,1.021-3.241,1.531-5.281,1.531c-4.518,0-7.723-3.425-7.723-8.088v-0.072
		c0-1.346,0.312-2.621,0.864-3.739c-1.056,0.062-2.116,0.133-3.181,0.217c-1.053,0.084-2.101,0.179-3.143,0.283
		c-0.266,1.06-0.406,2.169-0.406,3.312v0.073c0,7.54,5.464,13.114,13.406,13.114c4.662,0,8.269-1.821,10.892-4.044V29.944H71.827
		V34.789z"/>
	<path fill="#00703C" d="M48.264,30.035c-1.899,0.332-3.77,0.697-5.609,1.096v13.494h15.933v-5.277H48.264V30.035z"/>
	<path fill="#00703C" d="M16.037,40.133l-1.912,4.492h5.72L22,39.348h11.137l2.154,5.277h5.865l-5.064-11.9
		C28.756,34.703,22.004,37.213,16.037,40.133z"/>
	<path fill="#00703C" d="M24.994,31.966l2.574-6.284l2.138,5.223c1.693-0.357,3.421-0.696,5.179-1.016l-4.657-10.945h-5.173
		l-6.228,14.635C20.818,33.014,22.876,32.475,24.994,31.966z"/>
</g>
<g>
	<path fill="#00703C" d="M128.811,56.355v-0.042c0-4.229,3.166-7.692,7.67-7.692c2.742,0,4.399,0.956,5.823,2.316l-1.679,1.934
		c-1.19-1.106-2.465-1.849-4.166-1.849c-2.847,0-4.907,2.337-4.907,5.248v0.043c0,2.911,2.061,5.291,4.907,5.291
		c1.828,0,2.997-0.743,4.271-1.934l1.68,1.7c-1.552,1.614-3.252,2.634-6.035,2.634C132.04,64.005,128.811,60.627,128.811,56.355z"/>
	<path fill="#00703C" d="M143.783,56.355v-0.042c0-4.187,3.23-7.692,7.799-7.692c4.568,0,7.756,3.464,7.756,7.649v0.043
		c0,4.186-3.23,7.691-7.799,7.691C146.971,64.005,143.783,60.541,143.783,56.355z M156.597,56.355v-0.042
		c0-2.89-2.104-5.291-5.058-5.291c-2.953,0-5.015,2.358-5.015,5.248v0.043c0,2.89,2.104,5.291,5.058,5.291
		C154.535,61.604,156.597,59.245,156.597,56.355z"/>
	<path fill="#00703C" d="M162.034,48.876h2.613v12.495h7.82v2.379h-10.434L162.034,48.876L162.034,48.876z"/>
	<path fill="#00703C" d="M175.172,48.876h2.613v12.495h7.82v2.379h-10.434L175.172,48.876L175.172,48.876z"/>
	<path fill="#00703C" d="M188.31,48.876h11.028v2.337h-8.414v3.867h7.458v2.338h-7.458v3.995h8.521v2.337H188.31V48.876z"/>
	<path fill="#00703C" d="M201.689,56.355v-0.042c0-4.165,3.188-7.692,7.671-7.692c2.593,0,4.187,0.723,5.716,2.019l-1.656,1.976
		c-1.149-0.978-2.274-1.594-4.166-1.594c-2.741,0-4.823,2.401-4.823,5.248v0.043c0,3.06,2.019,5.312,5.058,5.312
		c1.402,0,2.678-0.445,3.591-1.126v-2.783h-3.804v-2.273h6.332v6.247c-1.466,1.254-3.569,2.315-6.205,2.315
		C204.749,64.005,201.689,60.691,201.689,56.355z"/>
	<path fill="#00703C" d="M218.992,48.876h11.028v2.337h-8.415v3.867h7.459v2.338h-7.459v3.995h8.522v2.337h-11.135L218.992,48.876
		L218.992,48.876z"/>
</g>
<rect x="242.132" y="19.125" fill="#00703C" width="1.49" height="44.625"/>
<rect x="243.616" y="30.396" fill="none" width="100.339" height="35.067"/>
<text transform="matrix(1 0 0 1 251.2696 43.0093)" fill="#00703C" font-family="'Montserrat-Regular'" font-size="17">SWIMMING </text>
<text transform="matrix(1 0 0 1 297.6956 64.0093)" fill="#00703C" font-family="'Montserrat-Regular'" font-size="17">POOL</text>
</svg>
