<?xml version="1.0" encoding="utf-8"?>
<!-- Generator: Adobe Illustrator 17.0.0, SVG Export Plug-In . SVG Version: 6.00 Build 0)  -->
<!DOCTYPE svg PUBLIC "-//W3C//DTD SVG 1.1//EN" "http://www.w3.org/Graphics/SVG/1.1/DTD/svg11.dtd">
<svg version="1.1" id="Layer_1" xmlns="http://www.w3.org/2000/svg" xmlns:xlink="http://www.w3.org/1999/xlink" x="0px" y="0px"
	 width="120px" height="40px" viewBox="0 0 120 40" enable-background="new 0 0 120 40" xml:space="preserve">
<circle cx="19.993" cy="20" r="19.993"/>
<circle cx="59.978" cy="20" r="19.993"/>
<circle cx="99.964" cy="20" r="19.993"/>
<rect x="10.809" y="17.398" fill="#FFFFFF" stroke="#FFFFFF" stroke-miterlimit="10" width="18.368" height="13.835"/>
<polygon fill="#FFFFFF" stroke="#FFFFFF" stroke-width="0.5" stroke-miterlimit="10" points="6.634,17.398 19.793,7.738 
	19.793,17.398 "/>
<polygon fill="#FFFFFF" stroke="#FFFFFF" stroke-width="0.5" stroke-miterlimit="10" points="20.193,17.398 20.193,7.738 
	33.353,17.398 "/>
<rect x="17.972" y="23.665" width="4.04" height="8.11"/>
<rect x="49.456" y="8.331" fill="none" width="20.753" height="26.001"/>
<text transform="matrix(1 0 0 1 50.937 31.3314)" fill="#FFFFFF" font-family="'Helvetica-Bold'" font-size="31.9885">$</text>
<rect x="86.935" y="9.355" fill="#FFFFFF" width="26.057" height="21.111"/>
<line fill="none" stroke="#000000" stroke-width="0.25" stroke-miterlimit="10" x1="90.666" y1="8.823" x2="90.666" y2="30.537"/>
<line fill="none" stroke="#000000" stroke-width="0.25" stroke-miterlimit="10" x1="94.399" y1="8.823" x2="94.399" y2="30.537"/>
<line fill="none" stroke="#000000" stroke-width="0.25" stroke-miterlimit="10" x1="98.13" y1="8.823" x2="98.13" y2="30.537"/>
<line fill="none" stroke="#000000" stroke-width="0.25" stroke-miterlimit="10" x1="101.863" y1="8.823" x2="101.863" y2="30.537"/>
<line fill="none" stroke="#000000" stroke-width="0.25" stroke-miterlimit="10" x1="105.596" y1="8.823" x2="105.596" y2="30.537"/>
<line fill="none" stroke="#000000" stroke-width="0.25" stroke-miterlimit="10" x1="109.327" y1="8.823" x2="109.327" y2="30.537"/>
<line fill="none" stroke="#000000" stroke-width="0.5" stroke-miterlimit="10" x1="86.935" y1="12.469" x2="112.992" y2="12.469"/>
<line fill="none" stroke="#000000" stroke-width="0.5" stroke-miterlimit="10" x1="86.935" y1="15.935" x2="112.992" y2="15.935"/>
<line fill="none" stroke="#000000" stroke-width="0.5" stroke-miterlimit="10" x1="86.935" y1="19.667" x2="112.992" y2="19.667"/>
<line fill="none" stroke="#000000" stroke-width="0.5" stroke-miterlimit="10" x1="86.935" y1="23.398" x2="112.992" y2="23.398"/>
<line fill="none" stroke="#000000" stroke-width="0.5" stroke-miterlimit="10" x1="86.935" y1="27.131" x2="112.992" y2="27.131"/>
<rect x="86.902" y="9.925" fill="none" width="3.733" height="2.544"/>
<text transform="matrix(1 0 0 1 87.8799 11.8436)" font-family="'Helvetica-Bold'" font-size="2.6693">S</text>
<rect x="90.634" y="9.925" fill="none" width="3.733" height="2.544"/>
<text transform="matrix(1 0 0 1 91.3926 11.8436)" font-family="'Helvetica-Bold'" font-size="2.6693">M</text>
<rect x="94.366" y="9.925" fill="none" width="3.733" height="2.544"/>
<text transform="matrix(1 0 0 1 95.4189 11.8436)" font-family="'Helvetica-Bold'" font-size="2.6693">T</text>
<rect x="98.065" y="9.925" fill="none" width="3.733" height="2.544"/>
<text transform="matrix(1 0 0 1 98.6738 11.8436)" font-family="'Helvetica-Bold'" font-size="2.6693">W</text>
<rect x="101.829" y="9.925" fill="none" width="3.733" height="2.544"/>
<text transform="matrix(1 0 0 1 102.8838 11.8436)" font-family="'Helvetica-Bold'" font-size="2.6693">T</text>
<rect x="105.562" y="9.925" fill="none" width="3.733" height="2.544"/>
<text transform="matrix(1 0 0 1 106.6143 11.8436)" font-family="'Helvetica-Bold'" font-size="2.6693">F</text>
<rect x="109.293" y="9.925" fill="none" width="3.733" height="2.544"/>
<text transform="matrix(1 0 0 1 110.2715 11.8436)" font-family="'Helvetica-Bold'" font-size="2.6693">S</text>
</svg>
