<?xml version="1.0" encoding="utf-8"?>
<!-- Generator: Adobe Illustrator 17.0.0, SVG Export Plug-In . SVG Version: 6.00 Build 0)  -->
<!DOCTYPE svg PUBLIC "-//W3C//DTD SVG 1.1//EN" "http://www.w3.org/Graphics/SVG/1.1/DTD/svg11.dtd">
<svg version="1.1" id="Layer_1" xmlns="http://www.w3.org/2000/svg" xmlns:xlink="http://www.w3.org/1999/xlink" x="0px" y="0px"
	 width="80px" height="40px" viewBox="0 0 80 40" enable-background="new 0 0 80 40" xml:space="preserve">
<circle fill="#02703C" cx="20" cy="20" r="20"/>
<path id="f_1_" fill="#FFFFFF" d="M22.016,34.319V21.256h4.385l0.657-5.091h-5.041v-3.25c0-1.474,0.409-2.478,2.523-2.478
	l2.696-0.001V5.882c-0.466-0.062-2.066-0.201-3.928-0.201c-3.887,0-6.547,2.372-6.547,6.729v3.754h-4.396v5.091h4.396v13.063
	L22.016,34.319L22.016,34.319z"/>
<circle fill="#02703C" cx="60" cy="20" r="20"/>
<path fill="#FFFFFF" d="M73.764,11.463c-1.013,0.449-2.101,0.753-3.244,0.889c1.166-0.699,2.062-1.806,2.483-3.124
	c-1.091,0.647-2.3,1.117-3.586,1.371c-1.03-1.098-2.498-1.783-4.122-1.783c-3.119,0-5.648,2.529-5.648,5.648
	c0,0.443,0.05,0.874,0.146,1.287c-4.694-0.236-8.855-2.484-11.641-5.901c-0.486,0.834-0.765,1.804-0.765,2.839
	c0,1.959,0.997,3.688,2.513,4.701c-0.926-0.029-1.797-0.283-2.558-0.706c-0.001,0.024-0.001,0.047-0.001,0.071
	c0,2.736,1.947,5.019,4.53,5.538c-0.474,0.129-0.973,0.198-1.488,0.198c-0.364,0-0.717-0.036-1.062-0.101
	c0.719,2.244,2.804,3.877,5.276,3.922c-1.933,1.515-4.368,2.418-7.014,2.418c-0.456,0-0.905-0.027-1.347-0.079
	c2.499,1.602,5.468,2.538,8.657,2.538c10.388,0,16.069-8.606,16.069-16.069c0-0.245-0.006-0.488-0.016-0.731
	C72.049,13.59,73.007,12.596,73.764,11.463L73.764,11.463z"/>
</svg>
