<?xml version="1.0" encoding="utf-8"?>
<!-- Generator: Adobe Illustrator 17.0.0, SVG Export Plug-In . SVG Version: 6.00 Build 0)  -->
<!DOCTYPE svg PUBLIC "-//W3C//DTD SVG 1.1//EN" "http://www.w3.org/Graphics/SVG/1.1/DTD/svg11.dtd">
<svg version="1.1" id="Layer_1" xmlns="http://www.w3.org/2000/svg" xmlns:xlink="http://www.w3.org/1999/xlink" x="0px" y="0px"
	 width="525px" height="75px" viewBox="0 0 525 75" enable-background="new 0 0 525 75" xml:space="preserve">
<circle cx="37.5" cy="37.5" r="37.5"/>
<circle cx="112.5" cy="37.5" r="37.5"/>
<circle cx="187.5" cy="37.5" r="37.5"/>
<circle cx="262.5" cy="37.5" r="37.5"/>
<circle cx="337.5" cy="37.5" r="37.5"/>
<circle cx="412.5" cy="37.5" r="37.5"/>
<circle cx="487.5" cy="37.5" r="37.5"/>
<rect x="6.438" y="33.125" fill="none" width="62.125" height="8.75"/>
<text transform="matrix(1 0 0 1 13.605 40.2646)" fill="#FFFFFF" font-family="'HelveticaNeue-Bold'" font-size="10">6:30-8 AM</text>
<rect x="81.438" y="33.125" fill="none" width="62.125" height="8.75"/>
<text transform="matrix(1 0 0 1 82.125 40.2646)" fill="#FFFFFF" font-family="'HelveticaNeue-Bold'" font-size="10">8:30AM-1PM</text>
<rect x="156.438" y="33.125" fill="none" width="62.125" height="8.75"/>
<text transform="matrix(1 0 0 1 166.3853 40.2646)" fill="#FFFFFF" font-family="'HelveticaNeue-Bold'" font-size="10">10-11AM</text>
<rect x="228.438" y="28.125" fill="none" width="67.875" height="18.75"/>
<text transform="matrix(1 0 0 1 229.2202 35.2646)"><tspan x="0" y="0" fill="#FFFFFF" font-family="'HelveticaNeue-Bold'" font-size="10">11:30AM-1PM </tspan><tspan x="11.3" y="10" fill="#FFFFFF" font-family="'HelveticaNeue-Bold'" font-size="10">or 1-3PM</tspan></text>
<rect x="381.438" y="33.125" fill="none" width="62.125" height="8.75"/>
<text transform="matrix(1 0 0 1 390.085 40.2646)" fill="#FFFFFF" font-family="'HelveticaNeue-Bold'" font-size="10">6-7:30PM</text>
<rect x="456.438" y="33.125" fill="none" width="62.125" height="8.75"/>
<text transform="matrix(1 0 0 1 458.1353 40.2646)" fill="#FFFFFF" font-family="'HelveticaNeue-Bold'" font-size="10">8:15-9:15PM</text>
<rect x="303.562" y="28.125" fill="none" width="67.875" height="18.75"/>
<text transform="matrix(1 0 0 1 315.645 35.2646)"><tspan x="0" y="0" fill="#FFFFFF" font-family="'HelveticaNeue-Bold'" font-size="10">5-6PM or</tspan><tspan x="-0.56" y="10" fill="#FFFFFF" font-family="'HelveticaNeue-Bold'" font-size="10">6:30-8PM</tspan></text>
</svg>
